<?xml version="1.0" encoding="utf-8"?>
<!-- Generator: Adobe Illustrator 23.0.1, SVG Export Plug-In . SVG Version: 6.00 Build 0)  -->
<svg version="1.1" id="IconTwitter" xmlns="http://www.w3.org/2000/svg" xmlns:xlink="http://www.w3.org/1999/xlink" x="0px"
	 y="0px" viewBox="0 0 26 26" width="26" height="26" style="enable-background:new 0 0 26 26;" xml:space="preserve">
<path d="M13,0.1C5.9,0.1,0.1,5.9,0.1,13S5.9,25.9,13,25.9S25.9,20.1,25.9,13S20.1,0.1,13,0.1z M20,9.4c0,0.2,0,0.3,0,0.5
	c0,4.8-3.6,10.2-10.2,10.2c-2,0-3.9-0.6-5.5-1.6c0.3,0,0.6,0,0.9,0c1.7,0,3.2-0.6,4.5-1.5C8,17,6.6,16,6.2,14.5
	c0.2,0,0.4,0.1,0.7,0.1c0.3,0,0.6,0,0.9-0.1c-1.6-0.3-2.9-1.8-2.9-3.5v0c0.5,0.3,1,0.4,1.6,0.4c-1-0.6-1.6-1.8-1.6-3
	c0-0.7,0.2-1.3,0.5-1.8c1.8,2.2,4.4,3.6,7.4,3.8c-0.1-0.3-0.1-0.5-0.1-0.8c0-2,1.6-3.6,3.6-3.6c1,0,2,0.4,2.6,1.1
	c0.8-0.2,1.6-0.5,2.3-0.9c-0.3,0.8-0.8,1.5-1.6,2c0.7-0.1,1.4-0.3,2.1-0.6C21.3,8.3,20.7,8.9,20,9.4z"/>
</svg>
