<?xml version="1.0" encoding="utf-8"?>
<!-- Generator: Adobe Illustrator 23.0.1, SVG Export Plug-In . SVG Version: 6.00 Build 0)  -->
<svg version="1.1" id="IconInsta" xmlns="http://www.w3.org/2000/svg" xmlns:xlink="http://www.w3.org/1999/xlink" x="0px" y="0px"
	 viewBox="0 0 26 26" width="26px" height="26px" style="enable-background:new 0 0 26 26;" xml:space="preserve">
<g>
	<title>instagram</title>
	<path d="M17.1,9.6c0.3,0,0.7,0,1,0c0.3,0,0.7,0,1,0c0,0,0.1,0,0.1,0c0.3-0.1,0.6-0.3,0.6-0.6c0-0.6,0-1.3,0-1.9c0,0,0-0.1,0-0.1
		c-0.1-0.3-0.3-0.5-0.7-0.5c-0.7,0-1.3,0-2,0c-0.4,0-0.7,0.3-0.7,0.7c0,0.6,0,1.3,0,1.9c0,0,0,0.1,0,0.1C16.5,9.4,16.8,9.6,17.1,9.6
		z"/>
	<path d="M13,16.1c1.9,0,3.4-1.5,3.4-3.2S14.9,9.6,13,9.6c-1.9,0-3.4,1.5-3.4,3.2C9.6,14.7,11.1,16.1,13,16.1z"/>
	<path d="M17.4,16c-1,1.3-2.4,2-4.1,2.1c-1,0.1-2-0.2-2.9-0.6c-0.9-0.5-1.6-1.1-2.1-2c-0.7-1.2-0.9-2.5-0.5-3.8c-0.5,0-1,0-1.5,0
		c0,0,0,0.1,0,0.1c0,2.3,0,4.7,0,7c0,0,0,0.1,0,0.1c0,0.3,0.2,0.5,0.5,0.6c0.1,0,0.2,0,0.3,0c2.1,0,4.2,0,6.3,0c2,0,3.9,0,5.9,0
		c0.1,0,0.1,0,0.2,0c0.3-0.1,0.5-0.3,0.5-0.6c0-0.4,0-0.9,0-1.3c0-1.9,0-3.8,0-5.8c0,0,0-0.1,0-0.1c-0.5,0-1,0-1.5,0
		C18.7,13.2,18.4,14.6,17.4,16z"/>
	<path d="M13,0C5.8,0,0,5.8,0,13s5.8,13,13,13s13-5.8,13-13S20.2,0,13,0z M21.5,18.3c0,1.6-1.4,3-3.1,3H7.6c-1.7,0-3.1-1.3-3.1-3
		V7.7c0-1.6,1.4-3,3.1-3h10.8c1.7,0,3.1,1.3,3.1,3L21.5,18.3L21.5,18.3z"/>
</g>
</svg>
