<?xml version="1.0" encoding="utf-8"?>
<!-- Generator: Adobe Illustrator 23.0.1, SVG Export Plug-In . SVG Version: 6.00 Build 0)  -->
<svg version="1.1" id="IconFb" xmlns="http://www.w3.org/2000/svg" xmlns:xlink="http://www.w3.org/1999/xlink" x="0px" y="0px"
	 viewBox="0 0 26 26" width="26px" height="26px" style="enable-background:new 0 0 26 26;" xml:space="preserve">
	 <title>facebook</title>
<path d="M13,0C5.8,0,0,5.8,0,13s5.8,13,13,13s13-5.8,13-13S20.2,0,13,0z M17.4,9.6l-0.2,3h-3.1V23h-3.9V12.6H8.2l0-3h2.1v-2
	c0-0.9,0-2.2,0.7-3.1C11.6,3.6,12.5,3,14.1,3c2.6,0,3.7,0.4,3.7,0.4l-0.5,3c0,0-0.9-0.2-1.7-0.2c-0.8,0-1.5,0.3-1.5,1.1v2.3
	L17.4,9.6L17.4,9.6L17.4,9.6z"/>
</svg>
