<?xml version="1.0" encoding="utf-8"?>
<!-- Generator: Adobe Illustrator 23.0.1, SVG Export Plug-In . SVG Version: 6.00 Build 0)  -->
<svg version="1.1" id="Logo" xmlns="http://www.w3.org/2000/svg" xmlns:xlink="http://www.w3.org/1999/xlink" x="0px" y="0px"
	 viewBox="0 0 134 49" style="enable-background:new 0 0 134 49;" xml:space="preserve">
<style type="text/css">
	.st0{fill:#FFFFFF;}
</style>
<g>
	<title>Mavericks</title>
	<path class="st0" d="M75.77,42.91h1.58c0.29,0,0.59,0.04,0.88,0.13s0.56,0.22,0.8,0.4c0.24,0.18,0.43,0.42,0.58,0.71
		s0.22,0.63,0.22,1.04c0,0.39-0.07,0.73-0.22,1.01s-0.34,0.52-0.58,0.71c-0.24,0.19-0.5,0.33-0.8,0.42
		c-0.29,0.09-0.59,0.14-0.88,0.14h-1.58V42.91z M76.41,46.9h0.8c0.28,0,0.53-0.04,0.77-0.12c0.24-0.08,0.44-0.19,0.61-0.33
		c0.17-0.15,0.3-0.33,0.4-0.54s0.14-0.46,0.14-0.73c0-0.28-0.05-0.53-0.14-0.75c-0.09-0.21-0.23-0.39-0.4-0.54
		c-0.17-0.14-0.37-0.25-0.61-0.33s-0.49-0.11-0.77-0.11h-0.8V46.9z"/>
	<path class="st0" d="M83.55,45.91c0,0.03,0,0.07,0,0.1s0,0.07-0.01,0.1H81.1c0,0.13,0.03,0.25,0.09,0.36
		c0.05,0.11,0.13,0.21,0.22,0.29c0.09,0.08,0.2,0.15,0.31,0.19c0.12,0.05,0.25,0.07,0.38,0.07c0.21,0,0.39-0.04,0.54-0.13
		s0.27-0.2,0.36-0.33l0.43,0.34c-0.16,0.22-0.36,0.38-0.58,0.48s-0.47,0.15-0.74,0.15c-0.23,0-0.45-0.04-0.65-0.12
		c-0.2-0.08-0.37-0.19-0.51-0.32c-0.14-0.14-0.26-0.31-0.34-0.5c-0.08-0.2-0.12-0.42-0.12-0.66c0-0.23,0.04-0.45,0.12-0.65
		s0.19-0.37,0.33-0.51s0.31-0.25,0.51-0.33c0.2-0.08,0.41-0.12,0.63-0.12c0.23,0,0.43,0.04,0.62,0.11c0.18,0.07,0.34,0.18,0.47,0.32
		c0.13,0.14,0.23,0.3,0.3,0.5C83.52,45.44,83.55,45.66,83.55,45.91z M82.93,45.66c0-0.12-0.03-0.23-0.06-0.34
		c-0.04-0.1-0.09-0.2-0.16-0.27c-0.07-0.08-0.16-0.14-0.27-0.18c-0.11-0.05-0.23-0.07-0.37-0.07c-0.13,0-0.25,0.02-0.37,0.07
		c-0.11,0.04-0.21,0.11-0.3,0.18c-0.08,0.08-0.15,0.17-0.21,0.27c-0.05,0.11-0.09,0.22-0.09,0.34H82.93z"/>
	<path class="st0" d="M86.06,45.18c-0.07-0.11-0.17-0.2-0.29-0.27c-0.13-0.07-0.27-0.11-0.42-0.11c-0.07,0-0.14,0.01-0.21,0.02
		c-0.07,0.01-0.13,0.04-0.19,0.07c-0.05,0.03-0.1,0.07-0.13,0.12s-0.05,0.11-0.05,0.18c0,0.13,0.06,0.22,0.18,0.29
		c0.12,0.06,0.29,0.12,0.53,0.17c0.15,0.03,0.28,0.08,0.41,0.12c0.13,0.05,0.23,0.11,0.33,0.18c0.09,0.07,0.17,0.16,0.22,0.25
		c0.05,0.1,0.08,0.21,0.08,0.35c0,0.18-0.03,0.33-0.1,0.46c-0.07,0.12-0.16,0.23-0.28,0.3c-0.11,0.08-0.25,0.14-0.39,0.17
		c-0.15,0.03-0.3,0.05-0.45,0.05c-0.23,0-0.46-0.05-0.69-0.14c-0.22-0.09-0.41-0.23-0.56-0.41l0.44-0.37
		c0.08,0.12,0.2,0.22,0.34,0.3c0.14,0.08,0.3,0.12,0.48,0.12c0.08,0,0.15-0.01,0.22-0.02c0.07-0.01,0.14-0.04,0.2-0.07
		s0.1-0.08,0.14-0.14s0.05-0.13,0.05-0.21c0-0.14-0.07-0.25-0.2-0.31c-0.14-0.07-0.34-0.13-0.6-0.19c-0.1-0.03-0.21-0.06-0.32-0.09
		c-0.11-0.04-0.2-0.09-0.29-0.15c-0.09-0.06-0.16-0.14-0.21-0.24c-0.05-0.1-0.08-0.22-0.08-0.36c0-0.16,0.03-0.3,0.1-0.42
		s0.15-0.21,0.26-0.29s0.23-0.13,0.37-0.17c0.14-0.04,0.28-0.05,0.43-0.05c0.22,0,0.43,0.04,0.64,0.13s0.36,0.21,0.48,0.37
		L86.06,45.18z"/>
	<path class="st0" d="M87.99,43.31c0,0.11-0.04,0.2-0.12,0.28c-0.08,0.07-0.17,0.11-0.29,0.11s-0.21-0.04-0.28-0.11
		c-0.08-0.08-0.12-0.17-0.12-0.27c0-0.11,0.04-0.21,0.12-0.28s0.17-0.11,0.28-0.11s0.21,0.04,0.29,0.11S87.99,43.2,87.99,43.31z
		 M87.9,47.46h-0.61v-3.05h0.61V47.46z"/>
	<path class="st0" d="M89.2,47.98c0.13,0.15,0.3,0.27,0.5,0.36s0.41,0.13,0.62,0.13c0.2,0,0.37-0.03,0.51-0.09s0.25-0.14,0.33-0.24
		c0.08-0.1,0.15-0.22,0.18-0.36c0.04-0.14,0.06-0.28,0.06-0.44v-0.39l0,0c-0.11,0.17-0.27,0.3-0.46,0.39s-0.4,0.14-0.62,0.14
		c-0.23,0-0.45-0.04-0.64-0.12c-0.19-0.08-0.36-0.19-0.49-0.33c-0.13-0.14-0.24-0.31-0.31-0.5s-0.11-0.4-0.11-0.61
		c0-0.22,0.04-0.42,0.11-0.62c0.07-0.19,0.18-0.36,0.31-0.5s0.3-0.26,0.49-0.34c0.19-0.08,0.4-0.13,0.64-0.13
		c0.22,0,0.43,0.05,0.63,0.14s0.36,0.24,0.48,0.43h0.01v-0.49h0.59v2.89c0,0.22-0.03,0.44-0.08,0.64c-0.06,0.2-0.15,0.38-0.29,0.54
		c-0.13,0.16-0.31,0.28-0.53,0.38c-0.22,0.09-0.48,0.14-0.8,0.14c-0.27,0-0.54-0.05-0.81-0.14c-0.27-0.1-0.5-0.23-0.7-0.41
		L89.2,47.98z M89.38,45.9c0,0.14,0.02,0.28,0.07,0.4c0.05,0.13,0.11,0.24,0.2,0.34s0.2,0.18,0.32,0.24
		c0.13,0.06,0.27,0.09,0.43,0.09s0.3-0.03,0.43-0.08c0.13-0.06,0.24-0.13,0.33-0.23c0.09-0.1,0.16-0.21,0.21-0.34
		c0.05-0.13,0.08-0.27,0.08-0.42c0-0.15-0.03-0.28-0.08-0.41s-0.12-0.24-0.22-0.34c-0.09-0.1-0.2-0.18-0.33-0.23
		c-0.13-0.06-0.27-0.09-0.43-0.09s-0.3,0.03-0.43,0.09s-0.23,0.13-0.32,0.23s-0.16,0.21-0.2,0.34
		C89.41,45.62,89.38,45.76,89.38,45.9z"/>
	<path class="st0" d="M93.62,44.41c0.01,0.08,0.02,0.16,0.02,0.26s0.01,0.18,0.01,0.24h0.02c0.04-0.08,0.09-0.16,0.16-0.23
		c0.07-0.07,0.14-0.13,0.23-0.19c0.09-0.05,0.18-0.09,0.29-0.13c0.1-0.03,0.21-0.04,0.32-0.04c0.2,0,0.37,0.03,0.51,0.1
		s0.26,0.16,0.36,0.27c0.09,0.11,0.17,0.24,0.21,0.39c0.05,0.15,0.07,0.31,0.07,0.48v1.89H95.2v-1.69c0-0.12-0.01-0.24-0.03-0.35
		c-0.02-0.11-0.06-0.21-0.11-0.3s-0.12-0.15-0.21-0.21c-0.09-0.05-0.21-0.08-0.35-0.08c-0.24,0-0.44,0.09-0.59,0.27
		c-0.15,0.18-0.23,0.43-0.23,0.73v1.62h-0.61v-2.39c0-0.08,0-0.19-0.01-0.31c0-0.13-0.01-0.24-0.02-0.34h0.58V44.41z"/>
	<path class="st0" d="M97.56,43.31c0,0.11-0.04,0.2-0.12,0.28c-0.08,0.07-0.17,0.11-0.29,0.11s-0.21-0.04-0.28-0.11
		c-0.08-0.08-0.12-0.17-0.12-0.27c0-0.11,0.04-0.21,0.12-0.28s0.17-0.11,0.28-0.11s0.21,0.04,0.29,0.11S97.56,43.2,97.56,43.31z
		 M97.46,47.46h-0.61v-3.05h0.61V47.46z"/>
	<path class="st0" d="M99.08,44.41c0.01,0.08,0.02,0.16,0.02,0.26s0.01,0.18,0.01,0.24h0.02c0.04-0.08,0.09-0.16,0.16-0.23
		c0.07-0.07,0.14-0.13,0.23-0.19c0.09-0.05,0.18-0.09,0.29-0.13c0.1-0.03,0.21-0.04,0.32-0.04c0.2,0,0.37,0.03,0.51,0.1
		s0.26,0.16,0.36,0.27c0.09,0.11,0.17,0.24,0.21,0.39c0.05,0.15,0.07,0.31,0.07,0.48v1.89h-0.61v-1.69c0-0.12-0.01-0.24-0.03-0.35
		c-0.02-0.11-0.06-0.21-0.11-0.3s-0.12-0.15-0.21-0.21c-0.09-0.05-0.21-0.08-0.35-0.08c-0.24,0-0.44,0.09-0.59,0.27
		c-0.15,0.18-0.23,0.43-0.23,0.73v1.62h-0.61v-2.39c0-0.08,0-0.19-0.01-0.31c0-0.13-0.01-0.24-0.02-0.34h0.57V44.41z"/>
	<path class="st0" d="M102.54,47.98c0.13,0.15,0.3,0.27,0.5,0.36s0.41,0.13,0.62,0.13c0.2,0,0.37-0.03,0.51-0.09
		s0.25-0.14,0.33-0.24c0.08-0.1,0.15-0.22,0.18-0.36c0.04-0.14,0.06-0.28,0.06-0.44v-0.39h-0.01c-0.11,0.17-0.27,0.3-0.46,0.39
		s-0.4,0.14-0.62,0.14c-0.23,0-0.45-0.04-0.64-0.12c-0.19-0.08-0.36-0.19-0.49-0.33s-0.24-0.31-0.31-0.5s-0.11-0.4-0.11-0.61
		c0-0.22,0.04-0.42,0.11-0.62c0.07-0.19,0.18-0.36,0.31-0.5s0.3-0.26,0.49-0.34c0.19-0.08,0.4-0.13,0.64-0.13
		c0.22,0,0.43,0.05,0.63,0.14s0.36,0.24,0.48,0.43h0.01v-0.49h0.59v2.89c0,0.22-0.03,0.44-0.08,0.64c-0.06,0.2-0.15,0.38-0.29,0.54
		c-0.13,0.16-0.31,0.28-0.53,0.38c-0.22,0.09-0.48,0.14-0.8,0.14c-0.27,0-0.54-0.05-0.81-0.14c-0.27-0.1-0.5-0.23-0.7-0.41
		L102.54,47.98z M102.72,45.9c0,0.14,0.02,0.28,0.07,0.4c0.05,0.13,0.11,0.24,0.2,0.34s0.2,0.18,0.32,0.24
		c0.13,0.06,0.27,0.09,0.43,0.09s0.3-0.03,0.43-0.08c0.13-0.06,0.24-0.13,0.33-0.23c0.09-0.1,0.16-0.21,0.21-0.34
		c0.05-0.13,0.08-0.27,0.08-0.42c0-0.15-0.03-0.28-0.08-0.41s-0.12-0.24-0.22-0.34c-0.09-0.1-0.2-0.18-0.33-0.23
		c-0.13-0.06-0.27-0.09-0.43-0.09s-0.3,0.03-0.43,0.09s-0.23,0.13-0.32,0.23s-0.16,0.21-0.2,0.34
		C102.75,45.62,102.72,45.76,102.72,45.9z"/>
	<path class="st0" d="M109.53,44.91h-0.82v1.58c0,0.18,0.03,0.32,0.1,0.39c0.07,0.08,0.18,0.12,0.33,0.12
		c0.06,0,0.12-0.01,0.18-0.02c0.06-0.01,0.12-0.03,0.18-0.05l0.02,0.49c-0.07,0.03-0.15,0.05-0.24,0.06
		c-0.09,0.01-0.18,0.02-0.28,0.02c-0.29,0-0.51-0.08-0.67-0.24c-0.15-0.16-0.23-0.4-0.23-0.71V44.9h-0.59v-0.49h0.59v-0.87h0.6v0.87
		h0.82v0.5H109.53z"/>
	<path class="st0" d="M110.8,44.87c0.07-0.15,0.2-0.28,0.38-0.39s0.38-0.16,0.6-0.16c0.2,0,0.37,0.03,0.51,0.1s0.26,0.16,0.36,0.27
		s0.17,0.24,0.21,0.39c0.05,0.15,0.07,0.31,0.07,0.48v1.89h-0.61v-1.69c0-0.12-0.01-0.24-0.03-0.35c-0.02-0.11-0.06-0.21-0.11-0.3
		s-0.12-0.16-0.21-0.21s-0.2-0.08-0.35-0.08c-0.24,0-0.44,0.09-0.6,0.27c-0.16,0.18-0.23,0.43-0.23,0.73v1.62h-0.61V42.6h0.61v2.28
		L110.8,44.87L110.8,44.87z"/>
	<path class="st0" d="M116.83,45.91c0,0.03,0,0.07,0,0.1s0,0.07-0.01,0.1h-2.45c0,0.13,0.03,0.25,0.09,0.36
		c0.05,0.11,0.13,0.21,0.22,0.29c0.09,0.08,0.2,0.15,0.31,0.19c0.12,0.05,0.25,0.07,0.38,0.07c0.21,0,0.39-0.04,0.54-0.13
		s0.27-0.2,0.36-0.33l0.43,0.34c-0.16,0.22-0.36,0.38-0.58,0.48s-0.47,0.15-0.74,0.15c-0.23,0-0.45-0.04-0.65-0.12
		c-0.2-0.08-0.37-0.19-0.51-0.32c-0.14-0.14-0.26-0.31-0.34-0.5c-0.08-0.2-0.12-0.42-0.12-0.66c0-0.23,0.04-0.45,0.12-0.65
		s0.19-0.37,0.33-0.51s0.31-0.25,0.51-0.33c0.2-0.08,0.41-0.12,0.63-0.12s0.43,0.04,0.62,0.11c0.18,0.07,0.34,0.18,0.47,0.32
		c0.13,0.14,0.23,0.3,0.3,0.5C116.8,45.44,116.83,45.66,116.83,45.91z M116.21,45.66c0-0.12-0.03-0.23-0.06-0.34
		c-0.04-0.1-0.09-0.2-0.16-0.27c-0.07-0.08-0.16-0.14-0.27-0.18c-0.11-0.05-0.23-0.07-0.37-0.07c-0.13,0-0.25,0.02-0.37,0.07
		c-0.11,0.04-0.21,0.11-0.3,0.18c-0.08,0.08-0.15,0.17-0.21,0.27c-0.05,0.11-0.09,0.22-0.09,0.34H116.21z"/>
	<path class="st0" d="M120.54,46.53h0.01l1.08-3.63h0.71l1.07,3.63h0.01l1.01-3.63h0.68l-1.35,4.55h-0.67l-1.12-3.66h-0.01
		l-1.12,3.66h-0.67l-1.35-4.55h0.7L120.54,46.53z"/>
	<path class="st0" d="M128.59,45.91c0,0.03,0,0.07,0,0.1s0,0.07-0.01,0.1h-2.45c0,0.13,0.03,0.25,0.09,0.36
		c0.05,0.11,0.13,0.21,0.22,0.29c0.09,0.08,0.2,0.15,0.31,0.19c0.12,0.05,0.25,0.07,0.38,0.07c0.21,0,0.39-0.04,0.54-0.13
		s0.27-0.2,0.36-0.33l0.43,0.34c-0.16,0.22-0.36,0.38-0.58,0.48s-0.47,0.15-0.74,0.15c-0.23,0-0.45-0.04-0.65-0.12
		c-0.2-0.08-0.37-0.19-0.51-0.32c-0.14-0.14-0.26-0.31-0.34-0.5c-0.08-0.2-0.12-0.42-0.12-0.66c0-0.23,0.04-0.45,0.12-0.65
		s0.19-0.37,0.33-0.51s0.31-0.25,0.51-0.33c0.2-0.08,0.41-0.12,0.63-0.12s0.43,0.04,0.62,0.11c0.18,0.07,0.34,0.18,0.47,0.32
		s0.23,0.3,0.3,0.5C128.55,45.44,128.59,45.66,128.59,45.91z M127.96,45.66c0-0.12-0.03-0.23-0.06-0.34
		c-0.04-0.1-0.09-0.2-0.16-0.27c-0.07-0.08-0.16-0.14-0.27-0.18c-0.11-0.05-0.23-0.07-0.37-0.07c-0.13,0-0.25,0.02-0.37,0.07
		c-0.11,0.04-0.21,0.11-0.3,0.18c-0.08,0.08-0.15,0.17-0.21,0.27c-0.05,0.11-0.09,0.22-0.09,0.34H127.96z"/>
	<path class="st0" d="M130.04,46.98v0.48h-0.59V42.6h0.61v2.27h0.02c0.1-0.15,0.25-0.28,0.43-0.38c0.19-0.1,0.41-0.16,0.66-0.16
		c0.23,0,0.44,0.04,0.62,0.12c0.19,0.08,0.35,0.19,0.49,0.34s0.24,0.32,0.31,0.51c0.07,0.19,0.11,0.4,0.11,0.63
		c0,0.22-0.04,0.43-0.11,0.63s-0.18,0.37-0.31,0.51c-0.13,0.15-0.3,0.26-0.49,0.34s-0.4,0.13-0.64,0.13c-0.22,0-0.43-0.05-0.63-0.14
		C130.32,47.3,130.16,47.16,130.04,46.98L130.04,46.98z M132.08,45.93c0-0.14-0.02-0.28-0.06-0.41s-0.11-0.25-0.2-0.35
		s-0.19-0.18-0.32-0.24s-0.28-0.09-0.45-0.09c-0.16,0-0.3,0.03-0.42,0.09c-0.13,0.06-0.24,0.14-0.33,0.24
		c-0.09,0.1-0.16,0.22-0.21,0.35c-0.05,0.13-0.07,0.27-0.07,0.42c0,0.15,0.02,0.28,0.07,0.42c0.05,0.13,0.12,0.25,0.21,0.35
		c0.09,0.1,0.2,0.18,0.33,0.24s0.27,0.09,0.42,0.09c0.17,0,0.32-0.03,0.45-0.09c0.13-0.06,0.23-0.14,0.32-0.25
		c0.09-0.1,0.15-0.22,0.2-0.35C132.06,46.21,132.08,46.07,132.08,45.93z"/>
	<path class="st0" d="M26.06,2.34l-3.64,40.43l6.48-0.51l0.45-7.14l2.24-0.11l0.26,7.01l6.4-0.51L35.08,3.24L26.06,2.34z
		 M29.35,28.12c0.2-3.5,0.66-9.02,1.38-16.54c0.25,6.57,0.5,12.07,0.77,16.5L29.35,28.12z"/>
	<path class="st0" d="M47.46,11.24c-0.42,5.41-0.82,11.64-1.21,18.67c-0.26-6.97-0.72-15.52-1.38-25.69l-6.58-0.66l3.22,37.7
		l9.51-0.76l3.52-35.33l-6.58-0.66L47.46,11.24z"/>
	<path class="st0" d="M74.27,28.61l0.03-4.15c0.86,0,1.39,0.2,1.59,0.6s0.29,1.43,0.28,3.1l-0.01,1.75c0.1,0.08,0.21,0.15,0.31,0.23
		c1.69,1.31,3.39,1.32,5.21,0.44c0.09-0.05,0.19-0.09,0.28-0.13v-0.34c0.02-2.43-0.02-3.92-0.12-4.46c-0.1-0.54-0.36-1.13-0.78-1.78
		c-0.42-0.65-1.25-1.18-2.48-1.59c1.37-0.14,2.29-0.62,2.76-1.42s0.72-2.37,0.73-4.71c0.02-2.57-0.3-4.46-0.94-5.69
		c-0.65-1.24-1.49-2.06-2.53-2.45c-1.04-0.39-3.03-0.74-5.98-1.03L68.2,6.54l-0.17,19.51C70.29,26.55,72.36,27.43,74.27,28.61z
		 M74.4,12.55c0.72,0.05,1.22,0.24,1.49,0.57s0.4,0.98,0.39,1.97l-0.01,1.71c-0.01,1.37-0.16,2.18-0.44,2.42
		c-0.29,0.24-0.78,0.35-1.48,0.33L74.4,12.55z"/>
	<path class="st0" d="M55.62,27.28c1.97-0.67,2.18-1.52,2.18-1.52s1.72-0.5,2.43-0.83l1.2-0.59c0.32-0.2,1.57-1.23,1.57-1.23
		s0.07,0.86-0.11,1.1c-0.05,0.07,0.53-0.04,0.76-0.12c0.09-0.03,1.09-0.17,1.21-0.14s-0.44,0.44-0.31,0.48
		c0.13,0.03,0.64-0.06,1.02-0.1l0.05-5.14l-3.9-0.12l0.06-6.4l4.17,0.27L66,6.32L55.59,5.29l-0.21,22.09
		C55.45,27.34,55.53,27.31,55.62,27.28z"/>
	<path class="st0" d="M63.88,32.82l-1.42,0.06c-0.61,0.17-1.13,0.56-1.54,1.18c-0.03,0.05-0.08,0.1-0.12,0.15
		c-0.35,0.4-0.89,0.8-1.3,0.54c-0.48-0.3,0.03-0.83,0.2-1.22c0.39-0.89,1.01-1.58,1.89-1.97l0.01-1.21
		c-0.26,0.17-0.35-0.15-0.49-0.25c-0.85-0.62-1.76-0.93-2.82-0.78c-1.12,0.16-2.12-0.13-2.92-0.96l-0.11,11.8l10.86-0.86l0.06-6.59
		l-0.62,0.03C65.06,32.88,64.5,32.9,63.88,32.82z M58.81,32.17c-0.1,0.15-0.27,0.28-0.44,0.35c-0.28,0.1-0.62,0.33-0.88,0.08
		c-0.24-0.23-0.01-0.53,0.1-0.77c0.12-0.28,0.27-0.56,0.44-0.82c0.74-1.12,1.27-1.16,2.35-0.15C59.72,31.14,59.21,31.6,58.81,32.17z
		"/>
	<path class="st0" d="M11.01,20.89L10.18,9.98C9.94,6.47,9.71,3.41,9.48,0.8L0.59,0L0,44.4l6.03-0.43l0.38-28.64l2.16,28.46
		l4.28-0.31L15.6,15l-0.35,28.3l6.03-0.43l0.51-40.95l-8.94-0.81L11.01,20.89z"/>
	<path class="st0" d="M104.4,10.81c-1.14-0.89-2.58-1.44-4.34-1.63c-1.29-0.14-2.44,0-3.44,0.42c-1,0.43-1.78,1.08-2.35,1.96
		s-0.91,1.83-1.03,2.84c-0.12,1.01-0.19,2.52-0.2,4.55L93,27.18c-0.02,2.76,0.16,4.82,0.52,6.17c0.36,1.34,1.11,2.36,2.24,3.03
		s2.57,0.92,4.33,0.77c1.69-0.15,3.11-0.7,4.26-1.64c1.15-0.93,1.9-1.96,2.24-3.09c0.34-1.12,0.52-3.01,0.53-5.65v-0.99l-5.97,0.05
		l-0.02,3.35c-0.01,1.46-0.08,2.39-0.22,2.8c-0.14,0.4-0.43,0.62-0.88,0.64c-0.46,0.03-0.76-0.16-0.89-0.55s-0.19-1.25-0.18-2.56
		l0.07-12.56c0.01-1.37,0.08-2.25,0.21-2.66c0.13-0.4,0.45-0.58,0.94-0.55c0.43,0.03,0.71,0.22,0.84,0.57
		c0.13,0.34,0.18,1.19,0.18,2.53l-0.02,4.63l5.97,0.13l0.01-2.42c0.01-2.38-0.16-4.15-0.51-5.3
		C106.29,12.71,105.54,11.69,104.4,10.81z"/>
	<polygon class="st0" points="122.03,12.2 117.01,11.62 114.6,20.66 114.63,11.34 109.28,10.72 109.18,35.82 114.55,35.33 
		114.58,25.04 116.72,35.12 122.27,34.61 118.93,22.26 	"/>
	<path class="st0" d="M133.15,24.18c-0.57-0.89-1.94-2.06-4.11-3.55c-0.76-0.54-1.22-0.99-1.38-1.36c-0.17-0.37-0.25-0.91-0.25-1.62
		c0-0.55,0.08-0.96,0.23-1.21c0.15-0.26,0.37-0.37,0.67-0.34c0.27,0.03,0.46,0.14,0.58,0.35c0.12,0.21,0.17,0.67,0.17,1.39v1.55
		l4.54,0.26v-0.78c0-1.57-0.15-2.7-0.44-3.39c-0.29-0.69-0.88-1.31-1.77-1.86c-0.89-0.56-1.97-0.93-3.24-1.09
		c-1.16-0.15-2.15-0.07-2.97,0.26c-0.82,0.34-1.42,0.87-1.78,1.62c-0.37,0.75-0.55,1.98-0.56,3.68c0,1.18,0.12,2.16,0.38,2.93
		c0.26,0.77,0.58,1.37,0.98,1.8c0.39,0.43,1.2,1.12,2.42,2.04c1.22,0.89,1.98,1.52,2.29,1.89c0.3,0.37,0.45,1.17,0.45,2.39
		c0,0.56-0.08,0.98-0.24,1.27s-0.4,0.45-0.73,0.47c-0.33,0.02-0.55-0.08-0.68-0.29c-0.13-0.22-0.19-0.73-0.19-1.52v-2.58l-4.55,0.09
		v1.46c0,1.67,0.14,2.94,0.42,3.83c0.29,0.88,0.89,1.56,1.82,2.05c0.93,0.48,2.05,0.64,3.36,0.5c1.2-0.13,2.24-0.47,3.15-1.03
		c0.9-0.55,1.51-1.17,1.82-1.86c0.31-0.69,0.47-1.74,0.47-3.14C134,26.45,133.72,25.05,133.15,24.18z"/>
	<path class="st0" d="M73.92,35.92c0.1,0.01,0.2,0.03,0.29,0.05l0.01-1.26c-0.58-0.63-0.98-1.43-1.33-2.28
		c-0.38,0.34-0.28,0.77-0.38,1.23c-1.37-0.79-2.82-1.22-4.37-1.31c-0.07,0-0.12-0.02-0.17-0.03l-0.06,6.85l6.26-0.5l0.01-1.47
		C74.11,36.76,74.03,36.34,73.92,35.92z"/>
	<path class="st0" d="M84.4,29.53c0.09-0.02,0.19-0.05,0.28-0.07c2.02-0.42,3.74,0.18,5.21,1.54c0.28,0.25,0.57,0.56,0.75,1.02
		L90.8,8.8l-6.24-0.62L84.4,29.53z"/>
	<path class="st0" d="M77.86,38.06c-0.29-0.99-0.78-1.73-1.75-2.16l-0.02,2.61l1.86-0.15C77.92,38.27,77.89,38.16,77.86,38.06z"/>
	<path class="st0" d="M78.94,32.56c-0.12,0.77-0.23,1.39-0.31,2.01c-0.04,0.31-0.08,0.72,0.19,0.88c0.75,0.45,0.55,1.15,0.58,1.8
		c0.01,0.34,0.05,0.67,0.11,1l2.41-0.19l0.03-4.17C80.93,33.88,79.92,33.49,78.94,32.56z"/>
	<path class="st0" d="M84.83,32.99c-0.15,0.09-0.31,0.17-0.46,0.25l-0.03,4.62l6.26-0.5l0.03-5.14C88.7,31.69,86.56,32,84.83,32.99z
		"/>
</g>
</svg>
